<svg width="47" height="26" viewBox="0 0 47 26" fill="none" xmlns="http://www.w3.org/2000/svg">
<path d="M23.2779 11.8407C26.3243 11.8407 28.7938 9.41391 28.7938 6.42034C28.7938 3.42677 26.3243 1 23.2779 1C20.2315 1 17.7619 3.42677 17.7619 6.42034C17.7619 9.41391 20.2315 11.8407 23.2779 11.8407Z" stroke="#0089CC" stroke-width="1.9" stroke-miterlimit="10"/>
<path d="M37.7434 13.6806C40.2278 13.6806 42.2418 11.7016 42.2418 9.26029C42.2418 6.81901 40.2278 4.83997 37.7434 4.83997C35.259 4.83997 33.2451 6.81901 33.2451 9.26029C33.2451 11.7016 35.259 13.6806 37.7434 13.6806Z" stroke="#0089CC" stroke-width="1.9" stroke-miterlimit="10"/>
<path d="M9.2682 13.7726C11.7526 13.7726 13.7666 11.7935 13.7666 9.35218C13.7666 6.91085 11.7526 4.93176 9.2682 4.93176C6.78382 4.93176 4.76984 6.91085 4.76984 9.35218C4.76984 11.7935 6.78382 13.7726 9.2682 13.7726Z" stroke="#0089CC" stroke-width="1.9" stroke-miterlimit="10"/>
<path d="M13.7039 25C13.7039 25 13.3732 15.344 23.5201 15.4C23.5201 15.4 33.1083 15.5681 33.2451 25" stroke="#0089CC" stroke-width="1.9" stroke-miterlimit="10" stroke-linecap="round" stroke-linejoin="round"/>
<path d="M1 24.4319C1 24.4319 1.05782 19.8183 4.67732 17.8069C4.67732 17.8069 8.2043 15.3978 12.6795 17.716" stroke="#0089CC" stroke-width="1.9" stroke-miterlimit="10" stroke-linecap="round"/>
<path d="M46 24.2373C46 24.2373 45.9537 19.6237 42.2764 17.6124C42.2764 17.6124 38.7032 15.2033 34.1354 17.5328" stroke="#0089CC" stroke-width="1.9" stroke-miterlimit="10" stroke-linecap="round"/>
</svg>
