<?xml version="1.0" encoding="utf-8"?>
<!-- Generator: Adobe Illustrator 24.2.3, SVG Export Plug-In . SVG Version: 6.00 Build 0)  -->
<svg version="1.1" id="Layer_1" xmlns="http://www.w3.org/2000/svg" xmlns:xlink="http://www.w3.org/1999/xlink" x="0px" y="0px"
	 viewBox="0 0 47 26" style="enable-background:new 0 0 47 26;" xml:space="preserve">
<style type="text/css">
	.st0{fill:none;stroke:#3A56A6;stroke-width:1.9;stroke-miterlimit:10;}
</style>
<path class="st0" d="M23.3,11.8c3,0,5.5-2.4,5.5-5.4S26.3,1,23.3,1s-5.5,2.4-5.5,5.4S20.2,11.8,23.3,11.8z"/>
<path class="st0" d="M37.7,13.7c2.5,0,4.5-2,4.5-4.4c0-2.4-2-4.4-4.5-4.4c-2.5,0-4.5,2-4.5,4.4C33.2,11.7,35.3,13.7,37.7,13.7z"/>
<path class="st0" d="M9.3,13.8c2.5,0,4.5-2,4.5-4.4c0-2.4-2-4.4-4.5-4.4c-2.5,0-4.5,2-4.5,4.4C4.8,11.8,6.8,13.8,9.3,13.8z"/>
<path class="st0" d="M13.7,25c0,0-0.3-9.7,9.8-9.6c0,0,9.6,0.2,9.7,9.6"/>
<path class="st0" d="M1,24.4c0,0,0.1-4.6,3.7-6.6c0,0,3.5-2.4,8-0.1"/>
<path class="st0" d="M46,24.2c0,0,0-4.6-3.7-6.6c0,0-3.6-2.4-8.1-0.1"/>
</svg>
