<svg width="30" height="30" viewBox="0 0 30 30" fill="none" xmlns="http://www.w3.org/2000/svg">
<g clip-path="url(#clip0)">
<path d="M18.9133 3.14398C18.9133 2.73113 18.5787 2.39661 18.1659 2.39661H10.2484C9.83559 2.39661 9.50107 2.73113 9.50107 3.14398V7.89597C9.50107 8.30882 9.83559 8.64334 10.2484 8.64334H17.4185V10.7545L10.2484 17.9269L8.40174 16.0794C8.24519 15.9228 8.02616 15.844 7.80683 15.8634C7.5863 15.883 7.38581 15.9994 7.25945 16.1811L0.133712 26.4291C-0.0251297 26.6575 -0.0438638 26.9553 0.0850827 27.2019C0.21393 27.4486 0.469232 27.6031 0.747453 27.6031H29.2507H29.2527C29.6656 27.6031 30.0001 27.2686 30.0001 26.8557C30.0001 26.678 29.9381 26.5148 29.8346 26.3866L18.9133 10.8279V3.14398ZM10.9958 7.1486V3.89135H17.4185V6.1486C17.4185 6.70088 16.9708 7.1486 16.4185 7.1486H10.9958ZM2.17733 26.1084L7.97643 17.7684L9.7198 19.5125C9.86001 19.6526 10.0501 19.7315 10.2484 19.7315C10.4466 19.7315 10.6368 19.6526 10.777 19.5125L18.0655 12.2217L26.7078 24.534C27.1729 25.1967 26.6989 26.1085 25.8893 26.1085L2.17733 26.1084Z" fill="#0089CC"/>
</g>
<defs>
<clipPath id="clip0">
<rect width="30" height="30" fill="white"/>
</clipPath>
</defs>
</svg>
