<?xml version="1.0" encoding="utf-8"?>
<!-- Generator: Adobe Illustrator 24.2.3, SVG Export Plug-In . SVG Version: 6.00 Build 0)  -->
<svg version="1.1" id="Layer_1" xmlns="http://www.w3.org/2000/svg" xmlns:xlink="http://www.w3.org/1999/xlink" x="0px" y="0px"
	 viewBox="0 0 30 30" style="enable-background:new 0 0 30 30;" xml:space="preserve">
<style type="text/css">
	.st0{clip-path:url(#SVGID_2_);}
	.st1{fill:#3C54A5;}
</style>
<g>
	<defs>
		<rect id="SVGID_1_" width="30" height="30"/>
	</defs>
	<clipPath id="SVGID_2_">
		<use xlink:href="#SVGID_1_"  style="overflow:visible;"/>
	</clipPath>
	<g class="st0">
		<path class="st1" d="M18.9,3.1c0-0.4-0.3-0.7-0.7-0.7h-7.9c-0.4,0-0.7,0.3-0.7,0.7v4.8c0,0.4,0.3,0.7,0.7,0.7h7.2v2.1l-7.2,7.2
			l-1.8-1.8c-0.2-0.2-0.4-0.2-0.6-0.2c-0.2,0-0.4,0.1-0.5,0.3L0.1,26.4C0,26.7,0,27,0.1,27.2c0.1,0.2,0.4,0.4,0.7,0.4h28.5h0
			c0.4,0,0.7-0.3,0.7-0.7c0-0.2-0.1-0.3-0.2-0.5L18.9,10.8V3.1z M11,7.1V3.9h6.4v2.3c0,0.6-0.4,1-1,1H11z M2.2,26.1L8,17.8l1.7,1.7
			c0.1,0.1,0.3,0.2,0.5,0.2c0.2,0,0.4-0.1,0.5-0.2l7.3-7.3l8.6,12.3c0.5,0.7,0,1.6-0.8,1.6L2.2,26.1z"/>
	</g>
</g>
</svg>
